<?xml version="1.0" encoding="utf-8"?>
<!DOCTYPE svg PUBLIC "-//W3C//DTD SVG 20010904//EN" "http://www.w3.org/TR/2001/REC-SVG-20010904/DTD/svg10.dtd">
<svg version="1.0" xmlns="http://www.w3.org/2000/svg" width="590pt" height="427pt" viewBox="0 0 590 427" style="" preserveAspectRatio="xMidYMid meet">
<g fill="#40A0E3FF" stroke="#40A0E3FF">
<path d="M 157.735 6.013 C 141.193 7.920 117.105 14.969 103.000 22.029 C 58.751 44.177 26.399 87.236 13.988 140.500 C 10.293 156.357 9.037 168.662 9.018 189.199 C 8.978 232.977 17.777 266.247 37.795 298.000 C 48.232 314.556 64.881 331.888 81.436 343.430 C 99.423 355.970 126.044 367.075 146.852 370.719 C 160.404 373.091 191.478 373.074 207.000 370.685 C 230.630 367.047 263.648 356.698 280.243 347.726 L 288.500 343.262 289.639 288.881 C 290.356 254.630 291.207 232.834 291.938 230.000 C 295.424 216.480 306.201 210.503 329.250 209.305 L 341.000 208.695 341.000 232.734 C 341.000 267.680 339.235 320.044 337.435 338.500 C 335.782 355.449 332.569 371.758 329.015 381.239 C 323.878 394.947 314.128 403.876 299.116 408.620 L 290.004 411.500 290.002 415.231 C 290.000 418.400 290.385 419.059 292.557 419.604 C 298.867 421.187 317.410 417.256 331.550 411.337 C 359.483 399.644 378.279 378.066 385.571 349.318 C 390.184 331.132 392.995 279.485 392.998 212.835 L 393.000 180.171 400.250 179.618 C 404.238 179.315 428.763 178.799 454.750 178.473 L 502.000 177.880 502.000 248.758 C 502.000 326.738 502.069 325.773 495.863 334.355 C 491.889 339.852 486.501 343.346 479.630 344.884 L 474.000 346.143 474.000 350.572 L 474.000 355.000 527.000 355.000 L 580.000 355.000 579.999 351.250 C 579.997 347.550 579.921 347.477 574.249 345.794 C 562.663 342.356 555.941 332.793 554.028 317.026 C 553.372 311.618 553.006 261.510 553.016 178.526 C 553.028 73.912 553.291 47.396 554.360 42.853 C 557.176 30.890 563.697 24.099 575.262 21.085 L 581.500 19.459 581.807 15.230 L 582.115 11.000 528.003 11.000 L 473.890 11.000 474.195 15.676 L 474.500 20.352 480.105 21.466 C 491.071 23.646 496.956 30.054 500.505 43.680 C 501.744 48.439 502.000 58.868 502.000 104.710 L 502.000 160.000 460.750 160.244 C 438.063 160.378 413.425 160.490 406.000 160.494 L 392.500 160.500 392.236 106.000 C 392.068 71.305 392.348 49.683 393.006 46.500 C 394.459 39.478 398.121 32.060 401.997 28.290 C 405.802 24.590 412.885 21.000 416.382 21.000 C 419.077 21.000 420.000 19.363 420.000 14.579 L 420.000 11.322 391.337 10.661 C 355.202 9.828 337.167 9.825 323.656 10.652 L 313.000 11.304 313.000 15.633 C 313.000 19.552 313.260 20.015 315.750 20.526 C 326.774 22.789 333.135 27.503 337.694 36.786 L 340.500 42.500 340.774 119.100 L 341.048 195.700 332.774 196.344 C 328.223 196.698 297.363 196.991 264.195 196.994 L 203.890 197.000 204.195 201.750 L 204.500 206.500 211.377 207.259 C 227.954 209.090 236.594 217.705 238.856 234.662 C 239.767 241.492 239.400 331.971 238.441 336.678 C 237.900 339.335 228.938 344.921 220.500 347.859 C 204.065 353.582 170.467 353.247 152.996 347.186 C 132.892 340.213 110.292 322.365 98.585 304.219 C 79.565 274.737 70.513 240.590 69.313 193.798 C 67.885 138.150 79.793 90.567 102.563 60.927 C 109.207 52.279 121.902 40.940 130.281 36.169 C 146.684 26.830 162.544 23.441 185.500 24.367 C 202.664 25.059 211.498 26.602 222.285 30.790 C 246.521 40.201 261.900 61.670 271.504 99.500 L 273.789 108.500 279.394 108.800 L 285.000 109.100 284.993 73.800 C 284.989 54.385 284.704 35.521 284.360 31.879 L 283.735 25.258 278.617 23.218 C 262.178 16.662 237.686 10.873 212.000 7.472 C 197.867 5.601 168.220 4.803 157.735 6.013 "/></g>
</svg>
